<svg width="400" height="240" viewBox="0 0 400 240" xmlns="http://www.w3.org/2000/svg">
  <defs>
    <linearGradient id="componentsBg" x1="0%" y1="0%" x2="100%" y2="100%">
      <stop offset="0%" style="stop-color:#0066cc;stop-opacity:1" />
      <stop offset="100%" style="stop-color:#0052a3;stop-opacity:1" />
    </linearGradient>
  </defs>
  <rect width="400" height="240" fill="url(#componentsBg)"/>
  
  <!-- Button component -->
  <rect x="60" y="50" width="100" height="36" rx="4" fill="white" opacity="0.9"/>
  <text x="110" y="73" font-family="system-ui" font-size="14" fill="#0066cc" text-anchor="middle" font-weight="600">Button</text>
  
  <!-- Checkbox -->
  <rect x="190" y="50" width="32" height="32" rx="4" fill="white" opacity="0.9" stroke="#0066cc" stroke-width="2"/>
  <path d="M 197 66 L 203 72 L 213 59" stroke="#0066cc" stroke-width="3" fill="none" stroke-linecap="round"/>
  
  <!-- Avatar -->
  <circle cx="270" cy="66" r="18" fill="white" opacity="0.9"/>
  <text x="270" y="72" font-family="system-ui" font-size="14" fill="#0066cc" text-anchor="middle" font-weight="600">AB</text>
  
  <!-- Card -->
  <rect x="60" y="110" width="120" height="80" rx="8" fill="white" opacity="0.9"/>
  <rect x="70" y="120" width="80" height="8" rx="4" fill="#0066cc" opacity="0.3"/>
  <rect x="70" y="136" width="60" height="8" rx="4" fill="#0066cc" opacity="0.3"/>
  <rect x="70" y="152" width="100" height="8" rx="4" fill="#0066cc" opacity="0.3"/>
  
  <!-- Progress bar -->
  <rect x="210" y="130" width="130" height="8" rx="4" fill="white" opacity="0.4"/>
  <rect x="210" y="130" width="80" height="8" rx="4" fill="white" opacity="0.9"/>
  
  <!-- Badge -->
  <g transform="translate(210, 160)">
    <rect width="28" height="28" rx="4" fill="white" opacity="0.4"/>
    <circle cx="25" cy="3" r="7" fill="white" opacity="0.9"/>
    <text x="25" y="7" font-family="system-ui" font-size="9" fill="#0066cc" text-anchor="middle" font-weight="700">3</text>
  </g>
  
  <text x="200" y="220" font-family="system-ui" font-size="16" font-weight="600" fill="white" text-anchor="middle" opacity="0.95">UI Components</text>
</svg>
