<svg width="400" height="240" viewBox="0 0 400 240" xmlns="http://www.w3.org/2000/svg">
  <defs>
    <linearGradient id="guidelinesBg" x1="0%" y1="0%" x2="100%" y2="100%">
      <stop offset="0%" style="stop-color:#28a745;stop-opacity:1" />
      <stop offset="100%" style="stop-color:#1e7e34;stop-opacity:1" />
    </linearGradient>
  </defs>
  <rect width="400" height="240" fill="url(#guidelinesBg)"/>
  
  <!-- Checklist/guidelines representation -->
  <g transform="translate(80, 60)">
    <circle cx="0" cy="0" r="12" fill="white" opacity="0.9"/>
    <path d="M -4 0 L -1 4 L 5 -4" stroke="#28a745" stroke-width="2" fill="none" stroke-linecap="round"/>
    <rect x="20" y="-6" width="200" height="4" rx="2" fill="white" opacity="0.7"/>
    <rect x="20" y="4" width="140" height="4" rx="2" fill="white" opacity="0.5"/>
  </g>
  
  <g transform="translate(80, 110)">
    <circle cx="0" cy="0" r="12" fill="white" opacity="0.9"/>
    <path d="M -4 0 L -1 4 L 5 -4" stroke="#28a745" stroke-width="2" fill="none" stroke-linecap="round"/>
    <rect x="20" y="-6" width="180" height="4" rx="2" fill="white" opacity="0.7"/>
    <rect x="20" y="4" width="160" height="4" rx="2" fill="white" opacity="0.5"/>
  </g>
  
  <g transform="translate(80, 160)">
    <circle cx="0" cy="0" r="12" fill="white" opacity="0.9"/>
    <path d="M -4 0 L -1 4 L 5 -4" stroke="#28a745" stroke-width="2" fill="none" stroke-linecap="round"/>
    <rect x="20" y="-6" width="160" height="4" rx="2" fill="white" opacity="0.7"/>
    <rect x="20" y="4" width="120" height="4" rx="2" fill="white" opacity="0.5"/>
  </g>
  
  <text x="200" y="220" font-family="system-ui" font-size="16" font-weight="600" fill="white" text-anchor="middle" opacity="0.95">Design Guidelines</text>
</svg>
