<svg width="596" height="372" viewBox="0 0 596 372" fill="none" xmlns="http://www.w3.org/2000/svg">
<path d="M402.803 150.655C410.481 150.655 417.511 151.913 423.885 154.437H423.884C430.257 156.829 435.771 160.419 440.422 165.204C445.072 169.989 448.654 175.765 451.173 182.526C453.829 189.168 455.152 196.662 455.152 204.998C455.152 215.457 452.968 224.616 448.583 232.46C444.335 240.294 438.488 246.344 431.046 250.599C423.603 254.854 415.169 256.976 405.76 256.976C400.577 256.976 395.592 256.111 390.805 254.382L390.8 254.381C386.149 252.653 381.961 250.258 378.236 247.197L378.229 247.192L378.222 247.185C374.913 244.242 372.167 240.957 369.985 237.33V298H350.848V204.406C350.848 193.033 353.095 183.345 357.615 175.364L357.619 175.36C362.264 167.394 368.506 161.279 376.344 157.027C384.179 152.775 393.002 150.655 402.803 150.655ZM402.803 167.236C396.845 167.236 391.347 168.724 386.3 171.702C381.391 174.676 377.444 178.878 374.462 184.323C371.615 189.761 370.183 196.188 370.183 203.618C370.183 211.179 371.615 217.736 374.462 223.306C377.445 228.752 381.391 232.954 386.3 235.928L386.774 236.202C391.694 238.996 397.099 240.395 403 240.395C409.221 240.395 414.779 238.84 419.688 235.738C424.603 232.632 428.488 228.361 431.341 222.912L431.345 222.904C434.321 217.466 435.817 211.109 435.817 203.816C435.817 196.256 434.32 189.767 431.345 184.332C428.362 178.884 424.35 174.678 419.307 171.702L419.302 171.699C414.39 168.725 408.894 167.236 402.803 167.236Z" fill="#161616" stroke="#161616"/>
<path d="M524.969 256.476C515.9 256.476 507.752 254.635 500.523 250.954C493.426 247.14 487.84 241.881 483.765 235.175C479.822 228.469 477.851 220.646 477.851 211.705V153.521H496.186V211.507C496.186 217.556 497.5 222.815 500.129 227.286C502.757 231.625 506.24 234.978 510.577 237.345C515.046 239.711 519.778 240.895 524.772 240.895C529.898 240.895 534.629 239.711 538.966 237.345C543.435 234.978 546.984 231.625 549.612 227.286C552.372 222.815 553.752 217.556 553.752 211.507V153.521H572.087V211.705C572.087 220.646 570.05 228.469 565.976 235.175C561.901 241.881 556.315 247.14 549.218 250.954C542.121 254.635 534.038 256.476 524.969 256.476Z" fill="#161616"/>
<path fill-rule="evenodd" clip-rule="evenodd" d="M500.523 250.954C507.752 254.635 515.9 256.476 524.969 256.476C534.038 256.476 542.121 254.635 549.218 250.954C556.315 247.14 561.901 241.881 565.976 235.175C570.05 228.469 572.087 220.646 572.087 211.705V153.521H553.752V211.507C553.752 217.556 552.372 222.815 549.612 227.286C546.984 231.625 543.435 234.978 538.966 237.345C534.629 239.711 529.898 240.895 524.772 240.895C519.778 240.895 515.046 239.711 510.577 237.345C506.24 234.978 502.757 231.625 500.129 227.286C497.5 222.815 496.186 217.556 496.186 211.507V153.521H477.851V211.705C477.851 220.646 479.822 228.469 483.765 235.175C487.84 241.881 493.426 247.14 500.523 250.954ZM499.636 252.649L499.618 252.639C492.229 248.669 486.387 243.174 482.131 236.169L482.124 236.157L482.117 236.145C477.976 229.104 475.938 220.935 475.938 211.704V151.607H498.099V211.507C498.099 217.266 499.346 222.175 501.771 226.304C504.226 230.353 507.458 233.46 511.482 235.658C515.676 237.877 520.097 238.981 524.772 238.981C529.59 238.981 534.005 237.872 538.05 235.664L538.071 235.653C542.233 233.449 545.526 230.338 547.976 226.294L547.985 226.28C550.532 222.155 551.84 217.255 551.84 211.507V151.607H574V211.704C574 220.946 571.891 229.123 567.61 236.169C563.354 243.174 557.512 248.669 550.123 252.639L550.111 252.646L550.099 252.652C542.695 256.493 534.303 258.389 524.969 258.389C515.635 258.389 507.183 256.493 499.655 252.659L499.636 252.649Z" fill="#161616"/>
<path d="M229.057 256.476C219.988 256.476 211.839 254.635 204.61 250.954C197.513 247.14 191.927 241.881 187.853 235.175C183.91 228.469 181.939 220.646 181.939 211.705V153.521H200.273V211.507C200.273 217.556 201.588 222.815 204.216 227.286C206.845 231.625 210.328 234.978 214.665 237.345C219.134 239.711 223.865 240.895 228.86 240.895C233.985 240.895 238.717 239.711 243.054 237.345C247.523 234.978 251.071 231.625 253.7 227.286C256.46 222.815 257.84 217.556 257.84 211.507V153.521H276.175V211.705C276.175 220.646 274.138 228.469 270.063 235.175C265.989 241.881 260.403 247.14 253.306 250.954C246.208 254.635 238.125 256.476 229.057 256.476Z" fill="#161616"/>
<path fill-rule="evenodd" clip-rule="evenodd" d="M204.61 250.954C211.839 254.635 219.988 256.476 229.057 256.476C238.125 256.476 246.208 254.635 253.306 250.954C260.403 247.14 265.989 241.881 270.063 235.175C274.138 228.469 276.175 220.646 276.175 211.705V153.521H257.84V211.507C257.84 217.556 256.46 222.815 253.7 227.286C251.071 231.625 247.523 234.978 243.054 237.345C238.717 239.711 233.985 240.895 228.86 240.895C223.865 240.895 219.134 239.711 214.665 237.345C210.328 234.978 206.845 231.625 204.216 227.286C201.588 222.815 200.273 217.556 200.273 211.507V153.521H181.939V211.705C181.939 220.646 183.91 228.469 187.853 235.175C191.927 241.881 197.513 247.14 204.61 250.954ZM205.859 226.304C203.434 222.176 202.186 217.267 202.186 211.507V151.607H180.026V211.704C180.026 220.935 182.064 229.104 186.204 236.145L186.211 236.157L186.218 236.169C190.475 243.174 196.316 248.669 203.705 252.639L203.724 252.649L203.743 252.659C211.271 256.493 219.722 258.389 229.057 258.389C238.39 258.389 246.782 256.493 254.186 252.652L254.199 252.646L254.211 252.639C261.6 248.669 267.441 243.174 271.698 236.169C275.979 229.123 278.088 220.946 278.088 211.704V151.607H255.927V211.507C255.927 217.255 254.619 222.155 252.072 226.28L252.064 226.294C249.614 230.338 246.321 233.449 242.159 235.653L242.138 235.664C238.093 237.872 233.678 238.981 228.86 238.981C224.185 238.981 219.763 237.877 215.57 235.658C211.546 233.46 208.314 230.354 205.859 226.304Z" fill="#161616"/>
<path d="M89.3825 255.415C70.2298 255.415 54.2113 249.145 41.3268 236.603C28.4423 223.887 22 208.123 22 189.31C22 170.498 28.4423 154.821 41.3268 142.279C54.2113 129.563 70.2298 123.206 89.3825 123.206C108.535 123.206 124.554 129.563 137.438 142.279C150.323 154.821 156.765 170.498 156.765 189.31C156.765 203.42 152.934 216.049 145.273 227.197C137.612 238.171 127.34 246.096 114.455 250.974C118.634 256.548 123.857 259.335 130.125 259.335C134.826 259.335 139.353 258.028 143.706 255.415C148.233 252.977 151.629 249.841 153.892 246.009L166.167 262.993C155.372 274.315 143.271 279.976 129.864 279.976C121.855 279.976 114.281 277.712 107.142 273.183C100.003 268.654 95.0412 262.644 92.2554 255.154L89.3825 255.415ZM89.3825 142.802C76.6721 142.802 65.964 147.331 57.2583 156.389C48.5525 165.446 44.1996 176.42 44.1996 189.31C44.1996 202.2 48.5525 213.174 57.2583 222.232C65.964 231.116 76.6721 235.558 89.3825 235.558C102.093 235.558 112.801 231.116 121.507 222.232C130.212 213.174 134.565 202.2 134.565 189.31C134.565 176.42 130.212 165.446 121.507 156.389C112.801 147.331 102.093 142.802 89.3825 142.802Z" fill="#161616"/>
<path d="M355.205 95.3895L315.302 74.9327C314.181 74.3558 312.856 74.3558 311.731 74.9327L271.829 95.3895C271.023 95.7986 270.412 96.5105 270.053 97.2838C269.81 97.783 269.626 98.6299 269.626 99.0513V122.638C269.626 124.896 271.414 126.729 273.616 126.729C275.819 126.729 277.607 124.896 277.607 122.638V103.826C277.607 103.826 310.506 120.994 314.379 120.994C318.252 120.994 354.905 102.848 354.905 102.848C356.362 102.247 357.343 100.831 357.407 99.219C357.475 97.607 356.609 96.1137 355.205 95.3895ZM314.379 127.882C313.856 127.882 312.473 127.584 311.982 127.376L287.699 116.259V128.743C287.699 130.294 287.699 131.207 289.421 132.089C290.076 132.425 290.479 132.76 291.142 133.107C297.404 136.379 309.215 142.519 314.379 142.519C319.543 142.519 331.787 136.378 338.047 133.107C338.704 132.763 339.118 132.422 339.768 132.089C341.974 130.958 341.919 130.29 341.919 128.743V116.259L316.961 127.376C316.498 127.552 314.866 127.882 314.379 127.882Z" fill="#5F84FF"/>
<path d="M303.047 151.612C303.047 151.612 310.037 154.573 314.336 154.573C318.636 154.573 325.204 151.612 325.204 151.612V256.025H303.047V151.612Z" fill="#161616"/>
</svg>
